<?xml version="1.0" encoding="UTF-8" standalone="no"?>
<!-- Created with Inkscape (http://www.inkscape.org/) -->

<svg
   xmlns:dc="http://purl.org/dc/elements/1.1/"
   xmlns:cc="http://creativecommons.org/ns#"
   xmlns:rdf="http://www.w3.org/1999/02/22-rdf-syntax-ns#"
   xmlns:svg="http://www.w3.org/2000/svg"
   xmlns="http://www.w3.org/2000/svg"
   xmlns:sodipodi="http://sodipodi.sourceforge.net/DTD/sodipodi-0.dtd"
   xmlns:inkscape="http://www.inkscape.org/namespaces/inkscape"
   width="25.418591mm"
   height="36.285679mm"
   viewBox="0 0 25.41859 36.285679"
   version="1.1"
   id="svg934"
   inkscape:version="0.92.2 (5c3e80d, 2017-08-06)"
   sodipodi:docname="U_C.svg">
  <defs
     id="defs928" />
  <sodipodi:namedview
     id="base"
     pagecolor="#ffffff"
     bordercolor="#666666"
     borderopacity="1.0"
     inkscape:pageopacity="0.0"
     inkscape:pageshadow="2"
     inkscape:zoom="0.175"
     inkscape:cx="1150.3753"
     inkscape:cy="-388.3741"
     inkscape:document-units="mm"
     inkscape:current-layer="layer2"
     showgrid="false"
     fit-margin-top="0"
     fit-margin-left="0"
     fit-margin-right="0"
     fit-margin-bottom="0"
     inkscape:window-width="1366"
     inkscape:window-height="705"
     inkscape:window-x="-8"
     inkscape:window-y="-8"
     inkscape:window-maximized="1" />
  <metadata
     id="metadata931">
    <rdf:RDF>
      <cc:Work
         rdf:about="">
        <dc:format>image/svg+xml</dc:format>
        <dc:type
           rdf:resource="http://purl.org/dc/dcmitype/StillImage" />
        <dc:title></dc:title>
      </cc:Work>
    </rdf:RDF>
  </metadata>
  <g
     inkscape:label="Capa 1"
     inkscape:groupmode="layer"
     id="layer1"
     transform="translate(251.62119,-15.47154)"
     style="display:none">
    <path
       id="path950"
       style="display:inline;fill:#000000;fill-opacity:1;stroke:none;stroke-width:0.30000001;stroke-linecap:butt;stroke-linejoin:miter;stroke-miterlimit:4;stroke-dasharray:none;stroke-opacity:1"
       d="m 98.934935,143.93937 2.004525,7.88428 -10.556975,0.26768 1.202513,-8.01812 z m 3.608565,-17.68574 -2.00453,8.95346 -8.285796,-0.26717 0.668176,-7.75095 z m 10.28981,-5.16558 -26.459881,0.26717 -2.271697,35.94768 24.187668,0.13384 -2.40502,-17.63355 -5.34541,-1.71433 5.61258,-0.95838 z"
       inkscape:connector-curvature="0"
       sodipodi:nodetypes="cccccccccccccccccc" />
  </g>
  <g
     inkscape:groupmode="layer"
     id="layer2"
     inkscape:label="Capa 2"
     style="display:inline"
     transform="translate(335.72292,105.61651)">
    <path
       style="display:inline;fill:#000000;fill-opacity:1;stroke:none;stroke-width:0.30000001;stroke-linecap:butt;stroke-linejoin:miter;stroke-miterlimit:4;stroke-dasharray:none;stroke-opacity:1"
       d="m -335.72292,-105.6165 1.98437,36.19107 23.43422,0.0946 -3.02358,-8.598961 -12.28452,-0.661459 -1.98437,-19.938321 14.24305,0.75603 2.55126,-7.748369 c -0.0617,0.0926 -24.80459,-0.0843 -24.92043,-0.0946 z"
       id="path1048"
       inkscape:connector-curvature="0" />
  </g>
  <g
     inkscape:groupmode="layer"
     id="layer3"
     inkscape:label="Capa 3"
     style="display:none"
     transform="translate(335.72292,105.61651)">
    <path
       style="display:inline;fill:#000000;fill-opacity:1;stroke:none;stroke-width:0.30000001;stroke-linecap:butt;stroke-linejoin:miter;stroke-miterlimit:4;stroke-dasharray:none;stroke-opacity:1"
       d="m 544.35196,244.51719 -14.8332,6.01359 -0.9358,18.84226 -8.246,-10.42366 -9.3111,8.95346 -0.8491,-18.17408 -14.735,-4.67724 9.7555,36.51457 6.0204,-0.0227 8.2785,-11.28468 6.6884,11.16738 6.6751,0.078 z"
       id="path1080"
       inkscape:connector-curvature="0" />
    <path
       style="display:inline;fill:#000000;fill-opacity:1;stroke:none;stroke-width:0.30000001;stroke-linecap:butt;stroke-linejoin:miter;stroke-miterlimit:4;stroke-dasharray:none;stroke-opacity:1"
       d="m -479.08478,244.89856 2.55127,36.47478 h 6.3314 l -0.37828,-11.42298 14.83577,-0.28371 -3.78013,-8.72287 -11.62253,1.91967 0.94517,-9.4605 15.30757,-0.66146 3.96875,-7.65379 z"
       id="path1072"
       inkscape:connector-curvature="0"
       sodipodi:nodetypes="ccccccccccc" />
    <path
       style="display:inline;fill:#000000;fill-opacity:1;stroke:none;stroke-width:0.30000001;stroke-linecap:butt;stroke-linejoin:miter;stroke-miterlimit:4;stroke-dasharray:none;stroke-opacity:1"
       d="m -339.89482,244.89856 -10.58332,0.56689 1.70066,35.90789 h 9.07129 l -0.18863,-13.04003 h 8.50437 l -1.13429,13.04003 h 7.74887 l 5.10255,-36.28564 h -10.39421 l -0.94515,15.49724 h -9.63819 z"
       id="path1070"
       inkscape:connector-curvature="0" />
    <path
       style="display:inline;fill:#000000;fill-opacity:1;stroke:none;stroke-width:0.30000001;stroke-linecap:butt;stroke-linejoin:miter;stroke-miterlimit:4;stroke-dasharray:none;stroke-opacity:1"
       d="m -190.40524,244.89856 2.07841,36.61999 h 7.84347 l -0.94517,-10.91768 8.69352,10.77247 10.39421,0.002 -15.96956,-15.68802 14.36346,-11.43392 -1.03974,-9.35499 -17.4811,15.49725 2.45669,-14.83579 z"
       id="path1068"
       inkscape:connector-curvature="0" />
    <path
       style="display:inline;fill:#000000;fill-opacity:1;stroke:none;stroke-width:0.30000001;stroke-linecap:butt;stroke-linejoin:miter;stroke-miterlimit:4;stroke-dasharray:none;stroke-opacity:1"
       d="m 697.27146,244.89856 4.2523,10.6779 19.0879,-4.06331 -23.1511,30.04933 h 34.018 l -5.4807,-9.82731 -13.0401,3.87418 18.8986,-30.33252 z"
       id="path1064"
       inkscape:connector-curvature="0" />
    <path
       style="display:inline;fill:#000000;fill-opacity:1;stroke:none;stroke-width:0.30000001;stroke-linecap:butt;stroke-linejoin:miter;stroke-miterlimit:4;stroke-dasharray:none;stroke-opacity:1"
       d="m -509.09433,244.91768 -27.52958,0.13488 3.07424,36.21484 23.45334,0.13281 -2.93987,-7.68582 -13.28498,-0.2677 v -7.0466 l 10.77764,0.6873 2.1363,-8.62273 -13.31443,2.00401 0.53537,-9.27954 14.68541,1.47072 z"
       id="path1062"
       inkscape:connector-curvature="0" />
    <path
       style="display:inline;fill:#000000;fill-opacity:1;stroke:none;stroke-width:0.30000001;stroke-linecap:butt;stroke-linejoin:miter;stroke-miterlimit:4;stroke-dasharray:none;stroke-opacity:1"
       d="m 578.69616,244.91768 c 0.2673,1.06908 8.985,19.71353 8.985,19.71353 l -10.5219,16.80827 10.357,0.0108 6.1821,-11.96671 7.6011,12.05043 9.8081,0.0155 -11.1951,-16.67082 10.3885,-19.96105 h -10.5575 l -5.7263,13.88494 -5.4989,-13.7511 z"
       id="path1056"
       inkscape:connector-curvature="0" />
    <path
       style="display:inline;fill:#000000;fill-opacity:1;stroke:none;stroke-width:0.30000001;stroke-linecap:butt;stroke-linejoin:miter;stroke-miterlimit:4;stroke-dasharray:none;stroke-opacity:1"
       d="m 441.00376,245.0877 5.67,36.66391 h 10.7719 l 16.3478,-36.47478 -11.623,0.18862 -8.4099,28.06496 h -1.8897 l -1.7958,-28.25358 z"
       id="path1052"
       inkscape:connector-curvature="0" />
    <path
       style="display:inline;fill:#000000;fill-opacity:1;stroke:none;stroke-width:0.30000001;stroke-linecap:butt;stroke-linejoin:miter;stroke-miterlimit:4;stroke-dasharray:none;stroke-opacity:1"
       d="m 309.68936,245.11819 1.87108,7.81761 11.35912,0.40101 -1.73742,28.19724 9.2206,-0.13384 -1.87068,-28.05513 12.49489,-0.27544 3.94179,-7.88427 z"
       id="path1050"
       inkscape:connector-curvature="0" />
    <path
       style="display:inline;fill:#000000;fill-opacity:1;stroke:none;stroke-width:0.30000001;stroke-linecap:butt;stroke-linejoin:miter;stroke-miterlimit:4;stroke-dasharray:none;stroke-opacity:1"
       d="m -283.64866,245.18537 1.06868,36.48201 6.81561,-0.26717 4.67722,-36.21484 z"
       id="path1044"
       inkscape:connector-curvature="0" />
    <path
       style="display:inline;fill:#000000;fill-opacity:1;stroke:none;stroke-width:0.30000001;stroke-linecap:butt;stroke-linejoin:miter;stroke-miterlimit:4;stroke-dasharray:none;stroke-opacity:1"
       d="m -135.84889,245.18537 1.06918,35.68051 20.04531,0.53433 3.20704,-7.7804 -16.71373,0.8015 1.97871,-29.10262 z"
       id="path1042"
       inkscape:connector-curvature="0" />
    <path
       style="display:inline;fill:#000000;fill-opacity:1;stroke:none;stroke-width:0.30000001;stroke-linecap:butt;stroke-linejoin:miter;stroke-miterlimit:4;stroke-dasharray:none;stroke-opacity:1"
       d="m -20.2549,245.18537 -2.40553,36.081 h 10.62206 l -2.02311,-21.2602 10.9688403,21.12688 7.43055,0.53433 v -36.18229 l -10.48824,-0.17312 4.07675,22.72678 -11.6912703,-22.72006 z"
       id="path1040"
       inkscape:connector-curvature="0" />
    <path
       style="display:inline;fill:#000000;fill-opacity:1;stroke:none;stroke-width:0.30000001;stroke-linecap:butt;stroke-linejoin:miter;stroke-miterlimit:4;stroke-dasharray:none;stroke-opacity:1"
       d="m 291.86914,245.18537 -27.6153,1.33635 2.27171,18.70842 14.23681,3.85248 -1.3725,7.32048 -16.25121,-3.04116 1.00046,7.90443 21.58114,0.26097 2.0882,-19.61483 -15.08329,-2.07998 -0.92191,-7.46207 18.63611,1.11207 z"
       id="path1038"
       inkscape:connector-curvature="0" />
    <path
       style="display:inline;fill:#000000;fill-opacity:1;stroke:none;stroke-width:0.30000001;stroke-linecap:butt;stroke-linejoin:miter;stroke-miterlimit:4;stroke-dasharray:none;stroke-opacity:1"
       d="m 669.96856,245.23756 -11.4923,3.47472 -4.7439,12.24163 -5.0115,-12.97647 -9.6217,-2.40553 11.76,22.06273 -0.7353,13.73198 h 8.4191 l -2.3621,-13.56765 z"
       id="path1036"
       inkscape:connector-curvature="0" />
    <path
       style="display:inline;fill:#000000;fill-opacity:1;stroke:none;stroke-width:0.30000001;stroke-linecap:butt;stroke-linejoin:miter;stroke-miterlimit:4;stroke-dasharray:none;stroke-opacity:1"
       d="m -221.64261,245.45253 -11.22516,0.13333 0.40101,30.20177 -12.56152,-0.53485 0.93536,-6.01358 -7.4838,-2.67271 1.33636,14.83372 h 22.98517 z"
       id="path1032"
       inkscape:connector-curvature="0" />
    <path
       style="display:inline;fill:#000000;fill-opacity:1;stroke:none;stroke-width:0.30000001;stroke-linecap:butt;stroke-linejoin:miter;stroke-miterlimit:4;stroke-dasharray:none;stroke-opacity:1"
       d="m -426.81045,245.46545 4.22662,35.341 25.61444,0.18914 3.59048,-20.78892 -17.72293,1.13378 2.45721,6.0477 7.51737,-0.75603 -2.64583,8.31577 -11.50938,-0.37827 -3.59048,-22.30045 23.60426,1.13378 -3.59051,-7.9375 z"
       id="path1030"
       inkscape:connector-curvature="0" />
    <path
       style="display:inline;fill:#000000;fill-opacity:1;stroke:none;stroke-width:0.30000001;stroke-linecap:butt;stroke-linejoin:miter;stroke-miterlimit:4;stroke-dasharray:none;stroke-opacity:1"
       d="m 383.64609,245.46545 -9.73331,0.56741 0.9452,35.34048 22.48961,0.18914 9.63867,-35.90789 h -12.00087 l -1.7957,29.67106 -12.7563,-0.18862 z"
       id="path1028"
       inkscape:connector-curvature="0" />
    <path
       style="display:inline;fill:#000000;fill-opacity:1;stroke:none;stroke-width:0.30000001;stroke-linecap:butt;stroke-linejoin:miter;stroke-miterlimit:4;stroke-dasharray:none;stroke-opacity:1"
       d="m -90.24184,245.65459 3.21273,35.52961 h 6.8037 l -1.13379,-21.16666 7.18148,8.31577 7.9375,-8.69353 -1.70119,21.73356 6.99286,-0.18914 3.40185,-35.43504 -9.26042,0.66145 -7.55972,11.90625 -6.04769,-11.33936 z"
       id="path1026"
       inkscape:connector-curvature="0" />
    <path
       id="path1020"
       style="display:inline;fill:#000000;fill-opacity:1;stroke:none;stroke-width:0.30000001;stroke-linecap:butt;stroke-linejoin:miter;stroke-miterlimit:4;stroke-dasharray:none;stroke-opacity:1"
       d="m 230.56545,249.71791 -2.07894,12.00081 -9.16585,0.37776 -0.66146,-10.29963 z m -19.49855,-4.93355 2.40554,36.61585 6.01358,-0.13384 0.10594,-10.54665 1.49757,2.06086 6.48126,8.35247 9.24647,0.2005 -13.29634,-13.69787 9.86295,-0.53434 7.75094,-22.18366 z"
       inkscape:connector-curvature="0" />
    <path
       id="path1016"
       style="display:inline;fill:#000000;fill-opacity:1;stroke:none;stroke-width:0.30000001;stroke-linecap:butt;stroke-linejoin:miter;stroke-miterlimit:4;stroke-dasharray:none;stroke-opacity:1"
       d="m 110.50145,250.94625 -1.70067,9.35499 H 98.784349 l -0.47234,-7.74836 z m -19.171451,-6.02857 1.06921,36.48253 8.953451,0.13384 -2.672721,-14.43271 14.432731,-0.40101 8.68627,-21.2478 z"
       inkscape:connector-curvature="0" />
    <path
       id="path1014"
       style="display:inline;fill:#000000;fill-opacity:1;stroke:none;stroke-width:0.30000001;stroke-linecap:butt;stroke-linejoin:miter;stroke-miterlimit:4;stroke-dasharray:none;stroke-opacity:1"
       d="m -590.02065,251.13539 9.92188,4.44107 -0.94516,10.01645 -10.3942,7.46518 z m 13.70149,-6.23683 -20.03288,0.37827 -2.4567,35.71876 13.60692,-0.18914 12.09539,-11.5285 0.75602,-19.27634 z"
       inkscape:connector-curvature="0" />
    <path
       id="path1012"
       style="display:inline;fill:#000000;fill-opacity:1;stroke:none;stroke-width:0.30000001;stroke-linecap:butt;stroke-linejoin:miter;stroke-miterlimit:4;stroke-dasharray:none;stroke-opacity:1"
       d="m 172.98084,251.59945 -2.281,21.98315 -0.85936,-6.74843 -6.34744,0.13333 3.3409,6.68176 -8.76485,-0.53433 -1.5689,-20.91397 z m 8.2858,-6.68177 -31.46938,0.53485 2.7378,35.54667 28.73158,0.13385 1.46968,-6.54844 -8.01812,0.93586 z"
       inkscape:connector-curvature="0" />
    <path
       id="path1010"
       style="display:inline;fill:#000000;fill-opacity:1;stroke:none;stroke-width:0.30000001;stroke-linecap:butt;stroke-linejoin:miter;stroke-miterlimit:4;stroke-dasharray:none;stroke-opacity:1"
       d="m 39.40399,254.25355 h 14.55208 l -3.87419,18.3317 h -9.07129 z m 23.2456,-9.35499 -29.86018,0.37827 1.51204,36.14405 h 22.11131 z"
       inkscape:connector-curvature="0" />
  </g>
</svg>
